<svg xmlns="http://www.w3.org/2000/svg" xmlns:xlink="http://www.w3.org/1999/xlink" width="442.216" height="81.158" viewBox="0 0 442.216 81.158">
  <defs>
    <clipPath id="clip-path">
      <rect id="Rectangle_4002" data-name="Rectangle 4002" width="81.158" height="442.216" transform="translate(0 0)" fill="#fff79d"/>
    </clipPath>
  </defs>
  <g id="Group_32677" data-name="Group 32677" transform="translate(442.217) rotate(90)" style="mix-blend-mode: normal;isolation: isolate">
    <g id="Group_32549" data-name="Group 32549" transform="translate(0 0.001)" clip-path="url(#clip-path)">
      <path id="Path_31584" data-name="Path 31584" d="M53.533,949.062a3.06,3.06,0,0,1-1.454-.164A52.791,52.791,0,0,1,45,974.931c-.233.4-.435.821-.659,1.23h5.57A57.7,57.7,0,0,0,57,948.524c0-.181-.007-.36-.009-.54-.569.69-1.608.891-3.457,1.078m-.677,19.2c-.063-.035-.127-.069-.187-.107-.085-.053-.149-.116-.1-.173a.165.165,0,0,1,.132-.021c.108.029.158.093.162.163a1.137,1.137,0,0,1,0,.139" transform="translate(-24.977 -533.946)" fill="#fff79d"/>
      <path id="Path_31585" data-name="Path 31585" d="M35.868,56.509A52.79,52.79,0,0,1,42.95,82.917a52.8,52.8,0,0,1-7.082,26.408,57.692,57.692,0,0,0,0,57.739,52.79,52.79,0,0,1,7.082,26.408,52.8,52.8,0,0,1-7.082,26.408,57.692,57.692,0,0,0,0,57.739,52.789,52.789,0,0,1,7.082,26.408,52.8,52.8,0,0,1-7.082,26.408,57.692,57.692,0,0,0,0,57.739A52.6,52.6,0,0,1,40.6,399.03a4.716,4.716,0,0,1,4.553,2.293l-.032-.064c.389-.022.777-.042,1.163-.052a57.575,57.575,0,0,0-6.168-15.5,52.772,52.772,0,0,1-3-46.744.31.31,0,0,1-.039-.012c-.054-.032-.028-.041,0-.048a.327.327,0,0,1,.068,0,52.567,52.567,0,0,1,2.977-6.008,57.709,57.709,0,0,0,7.744-28.869c0-.169-.007-.338-.008-.507l-.023-.011a.521.521,0,0,1-.253-.7.681.681,0,0,1,.26-.3,57.7,57.7,0,0,0-7.719-27.35,52.779,52.779,0,0,1,0-52.816,57.709,57.709,0,0,0,7.744-28.869A57.7,57.7,0,0,0,40.12,164.6a52.741,52.741,0,0,1-4.114-43.839.253.253,0,0,1-.063-.42c.041-.048.137-.053.234-.056a52.534,52.534,0,0,1,3.944-8.5,57.709,57.709,0,0,0,7.744-28.869A57.7,57.7,0,0,0,40.12,54.047a52.779,52.779,0,0,1,0-52.816c.234-.4.436-.822.66-1.231h-5.57a57.577,57.577,0,0,0,.659,56.508M40.6,398.241l.014-.027.03.009c0,.011,0,.021-.006.031Zm-2.786-11.47s0,.009,0,.014c-.018.005-.035.008-.052.014Zm-3.436-12.615-.014.028-.018-.036.032.008m-2.037-4.87.01.014-.014-.006,0-.008m-1.478-11.24a.48.48,0,0,1-.181-.432c.32-.639.867-.418,1.374-.336-.3.408-.5.974-1.193.768M31.9,369.23c.318.848,1.091,1.374.992,2.251-1.674-.735-1.689-.782-.992-2.251m9.91-52.042c.153-.273.242-.626.7-.537a.31.31,0,0,1,.152.26c-.145.44-.527.284-.85.277m1.847,6.241-.012.021-.013-.022h.025m-1.672-38.272c.037.035.1.071.1.1s-.062.067-.1.1c-.036-.034-.1-.071-.1-.1s.062-.066.1-.1M33.2,268.993l.008.012-.012,0,0-.007m6.551-96.941c.5-.088.864.138,1.293.659-.649.169-1.105.138-1.441-.329a.211.211,0,0,1,.148-.329m-5.009-18.181a.372.372,0,0,1,.323-.061.3.3,0,1,1-.282.5.272.272,0,0,1-.041-.443m-1.564-25.129c-.1.366-.38.448-.785.269-.193-.114-.53-.227-.387-.443.187-.283.637-.313.981-.32.3-.006.244.308.191.494M46.281,77.825a.278.278,0,0,1,.458-.055c.068.063.05.212.07.321a.3.3,0,0,1-.468.05.331.331,0,0,1-.06-.316M46.163,81a1.952,1.952,0,0,1,.195.049c.007,0,0,.061-.008.093a1.614,1.614,0,0,1-.194-.049c-.007,0,0-.061.007-.093m-2.047-6.91.021.008c0,.007,0,.014-.006.02h0l-.019-.009c0-.007,0-.013,0-.02M31.008,41.8a1.6,1.6,0,0,1,1.565.686c-.089.1-.11.15-.145.157a1.462,1.462,0,0,1-1.534-.556.178.178,0,0,1,.114-.287" transform="translate(-15.841 -0.001)" fill="#fff79d"/>
      <path id="Path_31586" data-name="Path 31586" d="M68.955,931.724c-.324.953-1.189,2-.474,2.906s1.191-.06,1.787-.484q-.151-2-.441-3.975c-.1,0-.2.005-.306,0-.19.518-.389,1.033-.566,1.555" transform="translate(-38.416 -523.912)" fill="#fff79d"/>
      <path id="Path_31587" data-name="Path 31587" d="M24.191,929.82c-.159.083-.3.207-.806.568,0,.013,0,.026.006.039.446.8.9,1.69,1.439,2.527.426.659.987,1.357.159,1.956a1.29,1.29,0,0,1-1.119.2c.057,1,.092,2,.092,3.009a52.8,52.8,0,0,1-7.082,26.408c-.233.4-.435.821-.659,1.23h5.57a57.7,57.7,0,0,0,7.084-27.638,57.546,57.546,0,0,0-.455-7.186c-1.3-.743-2.437-2.026-4.228-1.108M17.87,964.3a.564.564,0,0,1-.477.106.275.275,0,0,1-.158-.438c.09-.107.3-.118.417-.157.255.153.352.341.218.49m5.224-12.178-.181-.068a.98.98,0,0,1-.482-.265c-.033-.042-.045-.083.025-.086a.186.186,0,0,1,.142.061,1.4,1.4,0,0,0,.516.267c.086.037.231.076.194.136s-.137-.014-.215-.045m1.23-14.024-.013-.024.05-.021-.037.045M26.3,951.868c.009,0,.017,0,.027.008l-.041.016.015-.025" transform="translate(-9.136 -523.535)" fill="#fff79d"/>
      <path id="Path_31588" data-name="Path 31588" d="M16.316,399.494a5.422,5.422,0,0,1,1.112-1.053A57.526,57.526,0,0,0,12,385.709a52.777,52.777,0,0,1,0-52.816,57.716,57.716,0,0,0,7.743-28.869A57.706,57.706,0,0,0,12,275.155a52.777,52.777,0,0,1,0-52.816,57.716,57.716,0,0,0,7.743-28.869A57.706,57.706,0,0,0,12,164.6a52.744,52.744,0,0,1-3.856-44.562,3.84,3.84,0,0,1-.662-.289c-.3-.127-.487-.336-.4-.638.044-.156.121-.313.317-.328.391-.031.342.3.464.479a1.3,1.3,0,0,0,.449.315A52.534,52.534,0,0,1,12,111.785a57.716,57.716,0,0,0,7.743-28.869A57.709,57.709,0,0,0,12,54.046,52.776,52.776,0,0,1,12,1.231c.234-.4.436-.822.659-1.231H7.084a57.577,57.577,0,0,0,.659,56.508,52.791,52.791,0,0,1,7.082,26.408A52.828,52.828,0,0,1,12.48,98.461c.5.223.556.622.324,1.189a1.027,1.027,0,0,1-.992.823,52.506,52.506,0,0,1-4.069,8.85,57.692,57.692,0,0,0,0,57.739,52.788,52.788,0,0,1,7.082,26.408,52.8,52.8,0,0,1-7.082,26.408,57.692,57.692,0,0,0,0,57.739A52.7,52.7,0,0,1,13.6,292.76c.028,0,.052-.009.083-.01.219-.007.45.038.521.254a.555.555,0,0,1-.394.732,52.788,52.788,0,0,1,1.014,10.288,52.8,52.8,0,0,1-7.082,26.408,57.692,57.692,0,0,0,0,57.739,52.524,52.524,0,0,1,4.018,8.707h0a.649.649,0,0,1,.656.071,1.162,1.162,0,0,0,.9.129,3.288,3.288,0,0,0,.466.7c.084.076.1.192.019.171-.426-.117-.765.087-1.2-.1a.747.747,0,0,1-.271-.208,1.854,1.854,0,0,0-.417-.341q.514,1.485.936,3c1.476,1.708,2.773.082,3.467-.806M3.261,33.8a.441.441,0,0,1-.606.263.444.444,0,0,1-.262-.606.466.466,0,1,1,.868.342m14.69,59.614c-.252.5-.294,1.247-1.182.967a.489.489,0,0,1-.246-.407c.184-.918.861-.6,1.428-.56M14.6,67.127c.06-.361.377-.288.646-.211.211.061.475.166.44.4-.057.376-.406.22-.6.231-.275-.079-.521-.18-.481-.418M5.735,124.288a.415.415,0,0,1,.675-.194.53.53,0,0,1,.134.487.428.428,0,0,1-.7.185c-.039-.145-.166-.349-.113-.478M4.243,136.741c.005-.019.007-.038.013-.057l.035.068-.047-.011M13.43,320.836l.03.066c-.034,0-.068-.006-.1-.01a.8.8,0,0,1,.073-.056M2.228,348a1.676,1.676,0,0,1-.1-.227c0-.011.079-.044.121-.067l.115.224-.133.07M4.9,343.557a.716.716,0,0,1,1.11-.382c.366.206.444.557-.026,1.545.056-.112-.314.071-.807-.213a.69.69,0,0,1-.278-.95m5.616,43.981c-.243-.036-.247-.268-.187-.444a.413.413,0,0,1,.635-.255c.239.112.563.194.541.544a1.091,1.091,0,0,1-.99.156m1.728-1.336.014,0,0,0-.019-.005" transform="translate(0 0)" fill="#fff79d"/>
      <path id="Path_31589" data-name="Path 31589" d="M159.544,707.391c-.486.09-.915-.243-1.378-.326-.155-.028-.326-.1-.439,0-.142.118.065.212.123.323.24.453.647.92.233,1.347a.233.233,0,0,0,.026.346c.425.459.124.592-.334.656l.01.016h0l-.02-.007.009-.007c-.561-.655-.33-1.494-1.209-2.08-.21-.139-.134-.31-.084-.461.073-.22.149-.438.224-.657a2.275,2.275,0,0,0-1.172.2.4.4,0,0,1-.3.022,52.775,52.775,0,0,1-6.859,21.613,57.665,57.665,0,0,0-5.742,43.922.309.309,0,0,1,.277,0c.133.063.212.237.354.407-.18.113-.311.26-.44.266a57.7,57.7,0,0,0,2.294,6.577l.085.014-.025.125a57.488,57.488,0,0,0,3.2,6.432,52.773,52.773,0,0,1,0,52.815c-.233.4-.435.822-.659,1.23h5.57a57.392,57.392,0,0,0,6.782-33.5c-.026.074-.069.133-.223.085-.029-.009-.073-.065-.068-.086.033-.132.163-.084.285-.05a57.677,57.677,0,0,0-7.435-22.952,52.777,52.777,0,0,1,0-52.816,57.692,57.692,0,0,0,7.48-23.4,1.025,1.025,0,0,0-.556-.042M142.42,750.285l-.043.013c.006-.01.01-.02.015-.031l.034,0h0l-.007.016m5.252-17.682a.785.785,0,0,1-.123-.051.687.687,0,0,1,.137.044c.107.039.117.047.114.049a.675.675,0,0,1-.128-.042" transform="translate(-79.206 -397.941)" fill="#fff79d"/>
      <path id="Path_31590" data-name="Path 31590" d="M145.368,5.156a.2.2,0,1,1-.145.378.252.252,0,0,1-.121-.093,57.517,57.517,0,0,0,3.266,51.069,52.773,52.773,0,0,1,0,52.815,57.692,57.692,0,0,0,0,57.739,52.773,52.773,0,0,1,0,52.815,57.713,57.713,0,0,0-7.743,28.87q0,1.865.122,3.72c1.184.49,2.483.755,3.606,1.347a4.192,4.192,0,0,1-3.408.945,57.8,57.8,0,0,0,2.564,11.975,2,2,0,0,1,1.121.09c.556-.758,1.047-.821,2.059-.267.357.611.756,1.23-.31,1.482-.162.038-.255.155-.145.32a.407.407,0,0,0,.432.154,1.757,1.757,0,0,1,.647-.093,1.079,1.079,0,0,1,.867.975c.094.383-.407.153-.661.093-.538-.125-.693.158-.781.487-.093.352-.336.737.24,1.05a5.9,5.9,0,0,0,.716.285,1.187,1.187,0,0,1-1.114.238,10.911,10.911,0,0,1-1.646-.935,57.436,57.436,0,0,0,3.434,7,52.786,52.786,0,0,1,7.082,26.408c0,1.393-.062,2.782-.172,4.165a1.387,1.387,0,0,1,.563-.181c.62-.1.969-.465.925-1-.053-.658-.016-.681.791-.4a2.055,2.055,0,0,0,.621.128c.13,0,.335-.023.235-.137-.375-.428.021-.521.258-.718.254-.212.149-.478-.266-.581-.755-.186-1.043-.677-1.469-1.2a2.154,2.154,0,0,1,1.625.622.532.532,0,0,0,.688.211c.308-.079.755-.387,1.079.216,0,.007.013.011.018.018.008-.382.019-.763.019-1.146A57.734,57.734,0,0,0,154.649,279c-.134.049-.373-.057-.535-.118-.133-.049-.234-.183-.483-.389a1.728,1.728,0,0,1,.736-.084q-.82-1.654-1.746-3.257a52.777,52.777,0,0,1,0-52.816,57.688,57.688,0,0,0,0-57.738,52.777,52.777,0,0,1,0-52.816,57.658,57.658,0,0,0,1.428-55.1,6.738,6.738,0,0,0-.56-.509.113.113,0,0,1-.037-.116c.027-.055.118-.043.2-.02.033.01.058.028.089.04-.36-.684-.729-1.365-1.117-2.035A52.761,52.761,0,0,1,145.93,34a10.748,10.748,0,0,0-1.47-.8c-.435-.214-.99-.439-.745-1.057s.806-.369,1.271-.254c.35.086.69.2.749.219-.127-1.483-.2-2.972-.2-4.466a52.825,52.825,0,0,1,5.024-22.461c-.115-.134-.192-.265.014-.387a.5.5,0,0,1,.2-.066c.57-1.185,1.181-2.351,1.842-3.493.234-.4.436-.822.659-1.231h-5.571c-.015.028-.029.058-.045.086a.164.164,0,0,1,.036.078.15.15,0,0,1-.16.157q-1.27,2.359-2.316,4.82a.252.252,0,0,1,.143.013m9.982,293.42.026.054-.048-.009.022-.045m-10-55.261c-.353.771-1.045.223-1.505.209-.655-.364-1.609-.452-1.14-1.431.354-.738,1.055-.4,1.592-.185.615.244,1.471.492,1.053,1.407m10.118-60.237c.174-.4.56-.4.953-.276.33.1.5.325.342.64a.719.719,0,0,1-.951.3c-.326-.133-.474-.365-.343-.662m-14.153-52.449c-.061-.032-.064-.064-.006-.08a.1.1,0,0,1,.063.024c.012.013.006.035.007.052-.021,0-.049.012-.063,0m10.774-20.414c-.036-.012-.046-.027-.024-.038a.069.069,0,0,1,.036.007c.009.005.01.016.015.023s-.019.01-.027.008m2.41-41.476c.065.1.195.215.177.3s-.18.136-.28.2c-.066-.1-.2-.216-.179-.3s.181-.135.281-.2m-1.725-9.47a1.741,1.741,0,0,1,.137.123l-.073.062a1.821,1.821,0,0,1-.131-.128.336.336,0,0,1,.067-.057m-10.448-39.33a.235.235,0,0,1-.314.122.226.226,0,0,1-.155-.3.223.223,0,0,1,.311-.124.239.239,0,0,1,.158.3" transform="translate(-79.206 -0.001)" fill="#fff79d"/>
      <path id="Path_31591" data-name="Path 31591" d="M181.786,702.227c.043.2.155.363-.14.441-.151.04-.189.17-.048.3a.368.368,0,0,0,.364.07c.4-.115.921-.162.507-.747.451.041.657.191.633.472a1.014,1.014,0,0,0,.086.5c.079-.954.142-1.909.173-2.868a3.238,3.238,0,0,1-1.2.642c-.42.076-.483.713-.38,1.19" transform="translate(-102.234 -394.493)" fill="#fff79d"/>
      <path id="Path_31592" data-name="Path 31592" d="M149.129,614.958c.691-.485.677-.554-.233-.906a1.975,1.975,0,0,0-.264-.069c.747-.687.742-.7-.429-1.182-.105-.044-.214-.08-.321-.121q.449,1.3.963,2.578a.861.861,0,0,1,.284-.3" transform="translate(-83.294 -345.088)" fill="#fff79d"/>
      <path id="Path_31593" data-name="Path 31593" d="M117.054,761.518a57.668,57.668,0,0,0,3.189,51.323,52.774,52.774,0,0,1,0,52.816c-.233.4-.435.821-.659,1.23h5.57a57.574,57.574,0,0,0-.659-56.507,52.776,52.776,0,0,1,0-52.815q1.019-1.763,1.906-3.591c-1.167,1.753-2.713,3.235-3.862,5.01-1.228,1.9-3.546,1.921-5.487,2.534m7.215,54.792c.022-.072.238-.007.363.039.1.037.337.134.294.192s-.269-.015-.5-.089c-.14-.044-.175-.1-.161-.142M114,785.927a.393.393,0,0,1-.1-.691.524.524,0,0,1,.509.025c.1.084.066.329.091.5-.169.061-.387.218-.5.162m3.658-15.883a2.661,2.661,0,0,0-1.863.2c-.37-.96.156-1.6.443-2.3.18-.047.36-.092.539-.143.528-.15.716-1.15,1.393-.674a3.4,3.4,0,0,1,1.113,2.262c.091.523-.97.867-1.625.657" transform="translate(-63.365 -424.671)" fill="#fff79d"/>
      <path id="Path_31594" data-name="Path 31594" d="M120.75,2.468a12.183,12.183,0,0,0-2.8.748q-1.167,2.491-2.09,5.08c.019.012.035.025.054.037.718.43,1.381.739,1.025,1.712-.269.734-.777,1.761-1.492,1.486a2.744,2.744,0,0,0-.59-.152,57.619,57.619,0,0,0-1.907,9.077,8.808,8.808,0,0,1,.922.672c-.417.229-.76.415-1.06.559a57.055,57.055,0,0,0-.318,5.954,57.713,57.713,0,0,0,7.743,28.869,52.777,52.777,0,0,1,0,52.816,57.66,57.66,0,0,0-3.116,51.491l.02.031-.006,0a57.424,57.424,0,0,0,3.1,6.215,52.777,52.777,0,0,1,0,52.816,57.616,57.616,0,0,0-5.478,44.844c.417.147.835.295,1.247.456a1.64,1.64,0,0,1,1.208,2.162c-.653-.331-1.3-.676-1.96-.988q.814,2.541,1.86,5a1.9,1.9,0,0,1,1.378-.507c.684.018.72.481.553.887a7.005,7.005,0,0,0-.47,2.789q.784,1.57,1.661,3.094a52.777,52.777,0,0,1,0,52.816c-.071.122-.137.248-.207.371.141.019.29.047.448.084.223.052.714-.148.745-.3.723-3.553,3.9-1.835,5.854-2.724a57.692,57.692,0,0,0-2.588-52.708,52.623,52.623,0,0,1-5.077-12.03h0c-.05-.042-.121-.087-.081-.116a.121.121,0,0,1,.045-.012,52.823,52.823,0,0,1-1.967-14.249c0-.357.01-.714.017-1.071a1.944,1.944,0,0,0-.914.684,17.911,17.911,0,0,1-1.711-1.12c-.307-.252-.078-.538.247-.619a2.582,2.582,0,0,1,1.5-.19,1.229,1.229,0,0,0,.891.062l.02-.011A52.779,52.779,0,0,1,124.5,222.34a57.712,57.712,0,0,0,7.743-28.87c0-.24-.008-.48-.011-.721a11.13,11.13,0,0,1-2.7.927c-.3.066-.445-.439-.441-.832a3.1,3.1,0,0,1,3.053-2.552A57.691,57.691,0,0,0,124.5,164.6a52.779,52.779,0,0,1,0-52.815,57.712,57.712,0,0,0,7.743-28.87c0-.974-.032-1.947-.081-2.917a.073.073,0,0,1-.041.028.132.132,0,0,1-.1-.041c-.045-.094,0-.14.111-.112.011,0,.02.015.029.028A57.7,57.7,0,0,0,124.5,54.047a52.749,52.749,0,0,1-3.527-45.436,1.589,1.589,0,0,1,.253-.641A52.519,52.519,0,0,1,124.5,1.232c.234-.4.436-.822.659-1.231H121.86c.021.326.051.66.1,1.011.146,1.067-.3,1.33-1.209,1.456m-5.172,20.72a.208.208,0,0,1-.385-.152c.04-.1.127-.148.3-.08a.183.183,0,0,1,.081.231M129.025,317.73c.135-.208.362-.072.57,0-.13.1-.123.346-.438.253-.144-.043-.194-.159-.133-.253m-.824.546c.032.014.06.035.041.038a.522.522,0,0,1-.226-.067c.02-.028.086-.016.185.029m-12.634-54.054s0,.008,0,.013l-.017-.006.02-.007m-1.381-7.051.011-.034.019.038-.03,0M129.164,186.2c.247-.552.746-.421,1.148-.324.542.238.842.59.595,1.108s-.753.469-1.212.3a.755.755,0,0,1-.53-1.085m-1.4,20.359c.083,0,.162.174.243.272-.1.079-.2.217-.3.214-.082,0-.162-.174-.242-.271.1-.078.2-.218.3-.215m-6.127-42.907c.172-.227.378-.549.757-.449.336.089.209.395.19.614-.1.287-.263.479-.655.309-.224-.1-.448-.267-.292-.473m-2.289-6.1a.35.35,0,0,1,.233.173c-.021.071-.114.049-.2.022s-.23-.064-.222-.157c.006-.066.086-.074.188-.037m10.646-60.6c-1.174.3-1.784.072-2.276-.877.941-.321,1.564-.1,2.276.877m-2.315-6.517.231.223a1.968,1.968,0,0,1-.28.143c-.02.007-.12-.1-.11-.119a1.465,1.465,0,0,1,.16-.246M123.2,61.66a.375.375,0,0,1,.352-.059c.088.041.118.2.174.312-.1.061-.217.183-.309.169-.233-.037-.349-.213-.217-.421" transform="translate(-63.365 -0.001)" fill="#fff79d"/>
      <path id="Path_31595" data-name="Path 31595" d="M86.381,259.574c.935-.459,2.228.643,3.334-.224a.636.636,0,0,1,.637-.078,52.724,52.724,0,0,1,6.018-36.932,57.689,57.689,0,0,0,0-57.739,52.776,52.776,0,0,1,0-52.815,57.689,57.689,0,0,0,0-57.739,52.776,52.776,0,0,1,0-52.815C96.6.828,96.806.41,97.03,0h-5.57a57.577,57.577,0,0,0,.659,56.508,52.774,52.774,0,0,1,0,52.816,57.691,57.691,0,0,0,0,57.738,52.774,52.774,0,0,1,0,52.816,57.6,57.6,0,0,0-5.949,43.109.548.548,0,0,1,.1-.169c1.136-1.11-1.543-2.432.111-3.245M92.427,7.1a.652.652,0,0,1-.071.643c-.7.476-1.209.08-1.819-.6.753-.56,1.354-.606,1.89-.044M90.575,222.8a.652.652,0,0,1,.972-.319c.209.1.495.3.315.445-.33.268-.674.686-1.208.524-.294-.089-.2-.425-.079-.65m-2.085,8.753a.65.65,0,0,1,.76-.6,2.257,2.257,0,0,1,.924,1.553c.035.319-.29.453-.612.364-.677-.186-1.218-.511-1.072-1.318" transform="translate(-47.524 -0.001)" fill="#fff79d"/>
      <path id="Path_31596" data-name="Path 31596" d="M97.714,616.816a.4.4,0,0,0,.078.166c1.229,1.339,1.191,2.557-.206,3.648-.573-.26-1.133-.561-1.724-.768-.8-.278-1.339-.7-1.336-1.571a1.785,1.785,0,0,1,1.114-1.9c.884-.279,1.024-.606.672-1.432a2.733,2.733,0,0,1,.422-2.458c-.121-.217-.238-.436-.363-.651a52.686,52.686,0,0,1-5.613-14.067,2.2,2.2,0,0,1-.584.954,42.632,42.632,0,0,1-3.513,2.752,57.554,57.554,0,0,0,5.458,12.823,52.735,52.735,0,0,1,6.446,18.276c.066-.157.141-.311.224-.464a2.511,2.511,0,0,1,1.809,1.3,1.9,1.9,0,0,1-.007,1.782.784.784,0,0,1-.994.379,2.316,2.316,0,0,1-.69-.386,52.635,52.635,0,0,1-6.789,31.926,57.691,57.691,0,0,0,0,57.738,52.774,52.774,0,0,1,0,52.816c-.233.4-.435.822-.659,1.23h5.57a57.574,57.574,0,0,0-.659-56.507c-.039-.068-.076-.137-.114-.205-.039-.01-.076-.013-.117-.025-.542-.247-.946-.7-.572-1.109.011-.013.024-.025.036-.037a52.769,52.769,0,0,1,.767-51.439,57.685,57.685,0,0,0,1.741-54.49,1.938,1.938,0,0,0-.4,1.712m-5.845-13.5h.007l0,0-.009-.005m1.776,3.7c-.066.134-.091.309-.352.285a.239.239,0,0,1-.221-.165c-.043-.185.1-.283.246-.372a.607.607,0,0,1,.418-.008,1.906,1.906,0,0,1-.091.26M97.1,769.243c.176-.182.4-.124.715.078-.247.137-.494-.045-.715-.078m5.92-19.571.021.048-.059-.019Zm-3.183-2.949c.017.061.067.141.043.178s-.122.031-.187.045c-.018-.061-.068-.141-.045-.178s.122-.031.189-.045m-.287,11.384.021.05-.037-.014c.005-.012.011-.024.016-.035m-8.327-40.741.086.087a.639.639,0,0,1-.107.033c-.009,0-.05-.037-.048-.042a.566.566,0,0,1,.069-.078m-.661.333.014.024-.064-.006L90.5,717.7c.02,0,.042,0,.063,0m9.631-64.885c0,.015.012.037,0,.042s-.037,0-.056,0c0-.015-.012-.036,0-.043s.037,0,.056,0m-1.827,3.269c-.138.087-.3.016-.451-.053-.115-.053-.2-.149-.1-.225s.253-.016.382.052c.1.055.214.115.173.226m1.583-2.11c-.074,0-.118.063-.19.055-.335-.031-.4.073-.225.292-.342-.024-.711-.222-.946-.071-.04.026-.169-.022-.218-.091s-.028-.145.081-.141a.35.35,0,0,0,.4-.243c.07-.152.3-.141.573-.1a8.171,8.171,0,0,1-1.195-.86.833.833,0,0,1,.618.176,3.385,3.385,0,0,0,1.008.537c.137.066.339.1.356.232s-.04.219-.266.211" transform="translate(-47.524 -336.7)" fill="#fff79d"/>
      <path id="Path_31597" data-name="Path 31597" d="M63.8.826c-.224.538-.682,1.063-1.216.6a57.559,57.559,0,0,0,1.409,55.082,52.774,52.774,0,0,1,0,52.816,57.656,57.656,0,0,0-3.074,51.587c.011,0,.019,0,.031,0,.23.045.237.2.194.361-.014.02-.027.043-.04.065a57.552,57.552,0,0,0,2.89,5.726,52.774,52.774,0,0,1,0,52.816,57.691,57.691,0,0,0,0,57.738,52.774,52.774,0,0,1,0,52.816,57.691,57.691,0,0,0,0,57.738,52.79,52.79,0,0,1,7.082,26.408c0,.189-.007.377-.009.566a1.024,1.024,0,0,1,.632.247c.654.545.355,1.292.1,1.928-.307.773-.636,1.537-.969,2.3q-.178,1.851-.485,3.684a2.08,2.08,0,0,0,1.232.528c1.132.14,2.365,1.08,3.507.832a57.233,57.233,0,0,0,.9-10.086,57.732,57.732,0,0,0-5.636-24.854.763.763,0,0,1-.632.1c-.561-.126-.608-.664-.556-1.141a3.937,3.937,0,0,0-.094-1.489c-.21-.389-.426-.774-.645-1.158a3.339,3.339,0,0,0-.385-.362.8.8,0,0,1-.349-.957,52.6,52.6,0,0,1-3.918-9.044c-.2-.027-.412-.09-.616-.135a2.735,2.735,0,0,1,.374-.618,52.741,52.741,0,0,1,4.715-42.022,57.689,57.689,0,0,0,0-57.739,52.776,52.776,0,0,1,0-52.815,57.689,57.689,0,0,0,0-57.739,52.776,52.776,0,0,1,0-52.815,57.689,57.689,0,0,0,0-57.739A52.747,52.747,0,0,1,66.212,5.129a.6.6,0,0,1,.342-.749l.013,0q.785-1.6,1.678-3.145c.234-.4.436-.822.659-1.231H63.893A1.236,1.236,0,0,1,63.8.826m9.3,421.467H73.1l0,0-.008,0m1.13-16.446-.052.024-.093-.165.145.141m-1.728,1.1a.413.413,0,0,1,.376-.148c.512.2.353.517.192.826-.356-.106-.748-.2-.568-.677m-1.147,2.375a.392.392,0,0,1,.525-.23.433.433,0,0,1,.256.667c-.086.145-.32.2-.446.277-.4-.18-.467-.425-.335-.714M64,379.333a1.889,1.889,0,0,1,.254-.027l-.353.156c.033-.045.059-.12.1-.128m-1.014-5.457c0,.015,0,.031,0,.045l-.025-.054.026.009m-6.049-9.09c.059-.147.089-.321.342-.287.027,0,.074.056.071.079-.027.233-.234.2-.413.208m.774-3.561-.009-.013.01.014h0m5.544-22.57c-.181.461-.732.352-1.158.43-.116-.394-.894-.552-.688-1.015.183-.411.639-.51,1.341-.222.264.121.7.321.505.808M57.326,255.5a.652.652,0,0,1,.018-.138c0-.011.079-.013.084,0a.967.967,0,0,1,.064.142h-.166m1.246,6.746c-.022,0-.064-.088-.058-.093a1.544,1.544,0,0,1,.182-.107c.031.063.063.126.093.189a1.217,1.217,0,0,1-.218.011m-.055-3.988c-.088-.035-.116-.22-.17-.339l.345-.139.181.349c-.121.049-.269.164-.356.129m1.517,7.8-.027-.06.032.016c0,.015,0,.029,0,.044m1.24-107.251c-.113.071-.239.216-.342.2-.267-.042-.381-.249-.233-.481a.413.413,0,0,1,.393-.079c.1.045.123.235.183.36M72,80.11l.122.129-.178.048ZM58.279,23.067a.22.22,0,0,1-.287-.032c-.086-.084-.074-.183.025-.226a.3.3,0,0,1,.22.022.142.142,0,0,1,.041.236" transform="translate(-31.682 -0.001)" fill="#fff79d"/>
      <path id="Path_31598" data-name="Path 31598" d="M82.154,973.909a5.316,5.316,0,0,0-2.923-1.553,52.714,52.714,0,0,1-6.1,16.3c-.233.4-.435.822-.659,1.23h2.753a.83.83,0,0,1,.262-.116.349.349,0,0,1,.241.116H78.04c.185-.339.361-.682.539-1.024a.562.562,0,0,1,.009-.064.791.791,0,0,1,.126-.192,58,58,0,0,0,2.755-6.235c-.3-.242-.224-.632-.068-.976.137-.3.3-.671.64-.627q.919-2.7,1.569-5.471c-1,.5-.965-.957-1.456-1.391m-5.972,15.682-.009-.006h0v-.008l.01.006,0,.007m1.4-.261-.045-.038.058-.009ZM79,982.785c-.527-.073-.654-.493-1.019-.713.347-.346.846-.043,1.272.134a.8.8,0,0,1,.6.843,4.6,4.6,0,0,0-.855-.264" transform="translate(-40.818 -547.673)" fill="#fff79d"/>
    </g>
  </g>
</svg>
